<svg width="180" height="180" viewBox="0 0 180 180" fill="none" xmlns="http://www.w3.org/2000/svg">
<g clip-path="url(#clip0_9_145)">
<path d="M17.3099 151.634L15.7246 145.401C12.9138 144.213 10.0381 143.184 7.11109 142.32L6.911 145.217L6.0995 142.025C2.46952 140.99 0 140.535 0 140.535C0 140.535 3.3349 153.182 10.3319 162.85L18.4841 164.278L12.1509 165.189C13.0311 166.244 13.9769 167.244 14.9829 168.181C25.1604 177.6 36.4965 181.922 40.3024 177.833C44.1083 173.745 38.943 162.796 28.7655 153.378C25.6104 150.458 21.6469 148.115 17.6794 146.27L17.3099 151.634Z" fill="#F2F2F2"/>
<path d="M32.3861 144.863L34.2609 138.71C32.4706 136.245 30.5423 133.882 28.4852 131.634L26.8119 134.011L27.7718 130.86C25.2003 128.105 23.3224 126.442 23.3224 126.442C23.3224 126.442 19.6213 138.987 20.5976 150.87L26.8361 156.293L20.9415 153.809C21.1478 155.166 21.4395 156.51 21.8149 157.831C25.6442 171.139 33.1079 180.68 38.4853 179.142C43.8627 177.604 45.1179 165.569 41.2886 152.261C40.1015 148.135 37.9232 144.087 35.4832 140.463L32.3861 144.863Z" fill="#F2F2F2"/>
<path d="M125.603 42.6421H124.614V15.6328C124.614 13.5799 124.209 11.5471 123.421 9.65042C122.633 7.75375 121.478 6.0304 120.022 4.57875C118.566 3.12711 116.837 1.9756 114.935 1.18998C113.033 0.404354 110.994 0 108.935 0L51.5386 0C47.3801 0 43.3919 1.64703 40.4514 4.57875C37.5109 7.51048 35.859 11.4868 35.859 15.6328L35.859 163.81C35.859 165.863 36.2645 167.896 37.0525 169.793C37.8405 171.689 38.9954 173.413 40.4514 174.864C41.9074 176.316 43.6359 177.468 45.5383 178.253C47.4406 179.039 49.4795 179.443 51.5386 179.443H108.935C113.093 179.443 117.081 177.796 120.022 174.864C122.962 171.933 124.614 167.956 124.614 163.81L124.614 61.8678H125.603L125.603 42.6421Z" fill="#E6E6E6"/>
<path d="M109.567 4.06561L102.076 4.06561C102.42 4.90783 102.552 5.82161 102.459 6.72645C102.366 7.63129 102.051 8.49941 101.542 9.25432C101.033 10.0092 100.346 10.6278 99.5403 11.0554C98.7352 11.4831 97.8368 11.7068 96.9245 11.7067L64.043 11.7067C63.1308 11.7067 62.2325 11.483 61.4274 11.0553C60.6223 10.6276 59.935 10.009 59.4262 9.25412C58.9173 8.49922 58.6024 7.63113 58.5093 6.72633C58.4163 5.82153 58.5478 4.90779 58.8923 4.06561L51.8948 4.06561C48.7893 4.06561 45.8109 5.29559 43.615 7.48498C41.4191 9.67436 40.1854 12.6438 40.1854 15.7401L40.1854 163.702C40.1854 166.799 41.4191 169.768 43.615 171.957C45.8109 174.147 48.7893 175.377 51.8948 175.377H109.567C112.673 175.377 115.651 174.147 117.847 171.957C120.043 169.768 121.277 166.799 121.277 163.702L121.277 15.7398C121.277 12.6436 120.043 9.67422 117.847 7.48489C115.651 5.29555 112.673 4.06561 109.567 4.06561Z" fill="white"/>
<path d="M73.382 63.0063C73.3818 61.972 73.6549 60.956 74.1737 60.0604C74.6926 59.1648 75.4389 58.4213 76.3375 57.9046C75.4393 57.3874 74.4204 57.1151 73.3831 57.115C72.3459 57.1148 71.3269 57.387 70.4286 57.904C69.5302 58.421 68.7842 59.1647 68.2656 60.0602C67.7469 60.9558 67.4739 61.9718 67.4739 63.0059C67.4739 64.0401 67.7469 65.056 68.2656 65.9516C68.7842 66.8472 69.5302 67.5908 70.4286 68.1079C71.3269 68.6249 72.3459 68.897 73.3831 68.8969C74.4204 68.8968 75.4393 68.6244 76.3375 68.1072C75.4389 67.5907 74.6927 66.8473 74.1738 65.9518C73.655 65.0563 73.3819 64.0404 73.382 63.0063Z" fill="#CCCCCC"/>
<path d="M80.8099 63.0063C80.8097 61.972 81.0828 60.956 81.6016 60.0604C82.1204 59.1648 82.8667 58.4212 83.7654 57.9046C82.8672 57.3874 81.8483 57.1151 80.811 57.115C79.7738 57.1148 78.7548 57.387 77.8565 57.904C76.9581 58.421 76.2121 59.1647 75.6935 60.0602C75.1748 60.9558 74.9018 61.9718 74.9018 63.0059C74.9018 64.0401 75.1748 65.056 75.6935 65.9516C76.2121 66.8472 76.9581 67.5908 77.8565 68.1079C78.7548 68.6249 79.7738 68.897 80.811 68.8969C81.8483 68.8968 82.8672 68.6244 83.7654 68.1072C82.8668 67.5907 82.1205 66.8473 81.6017 65.9518C81.0829 65.0563 80.8098 64.0404 80.8099 63.0063Z" fill="#CCCCCC"/>
<path d="M88.0691 68.897C91.3324 68.897 93.9777 66.2595 93.9777 63.006C93.9777 59.7525 91.3324 57.1151 88.0691 57.1151C84.8059 57.1151 82.1606 59.7525 82.1606 63.006C82.1606 66.2595 84.8059 68.897 88.0691 68.897Z" fill="#8FE1D7"/>
<path d="M97.9439 81.4058H63.5073C63.1795 81.4054 62.8651 81.2754 62.6333 81.0443C62.4015 80.8132 62.2711 80.4998 62.2707 80.1729L62.2707 45.8391C62.2711 45.5123 62.4015 45.1989 62.6333 44.9678C62.8651 44.7366 63.1795 44.6066 63.5073 44.6062L97.9439 44.6062C98.2717 44.6066 98.586 44.7366 98.8178 44.9678C99.0496 45.1989 99.18 45.5123 99.1804 45.8391V80.1729C99.18 80.4998 99.0496 80.8132 98.8178 81.0443C98.586 81.2754 98.2717 81.4054 97.9439 81.4058ZM63.5073 45.0997C63.3106 45.0999 63.122 45.1779 62.9829 45.3165C62.8438 45.4552 62.7656 45.6433 62.7654 45.8394L62.7654 80.1732C62.7656 80.3693 62.8438 80.5573 62.9829 80.696C63.122 80.8347 63.3106 80.9127 63.5073 80.9129H97.9439C98.1406 80.9127 98.3291 80.8347 98.4682 80.696C98.6073 80.5573 98.6856 80.3693 98.6858 80.1732V45.8394C98.6856 45.6433 98.6073 45.4552 98.4682 45.3165C98.3291 45.1779 98.1406 45.0999 97.9439 45.0997L63.5073 45.0997Z" fill="#CCCCCC"/>
<path d="M105.633 107.724L52.8177 107.724V108.218L105.633 108.218V107.724Z" fill="#CCCCCC"/>
<path d="M54.4857 104.645C55.4068 104.645 56.1536 103.901 56.1536 102.982C56.1536 102.064 55.4068 101.319 54.4857 101.319C53.5645 101.319 52.8177 102.064 52.8177 102.982C52.8177 103.901 53.5645 104.645 54.4857 104.645Z" fill="#8FE1D7"/>
<path d="M105.633 124.353L52.8177 124.353V124.846L105.633 124.846V124.353Z" fill="#CCCCCC"/>
<path d="M54.4857 121.274C55.4068 121.274 56.1536 120.529 56.1536 119.611C56.1536 118.693 55.4068 117.948 54.4857 117.948C53.5645 117.948 52.8177 118.693 52.8177 119.611C52.8177 120.529 53.5645 121.274 54.4857 121.274Z" fill="#8FE1D7"/>
<path d="M104.666 143.289H87.9754C87.6871 143.289 87.4107 143.174 87.2068 142.971C87.0029 142.768 86.8883 142.492 86.8879 142.205V136.372C86.8883 136.085 87.0029 135.809 87.2068 135.606C87.4107 135.402 87.6871 135.288 87.9754 135.288H104.666C104.955 135.288 105.231 135.402 105.435 135.606C105.639 135.809 105.754 136.085 105.754 136.372V142.205C105.754 142.492 105.639 142.768 105.435 142.971C105.231 143.174 104.955 143.289 104.666 143.289Z" fill="#8FE1D7"/>
<path d="M59.9264 104.645C60.8475 104.645 61.5943 103.901 61.5943 102.982C61.5943 102.064 60.8475 101.319 59.9264 101.319C59.0052 101.319 58.2584 102.064 58.2584 102.982C58.2584 103.901 59.0052 104.645 59.9264 104.645Z" fill="#8FE1D7"/>
<path d="M65.3671 104.645C66.2883 104.645 67.035 103.901 67.035 102.982C67.035 102.064 66.2883 101.319 65.3671 101.319C64.4459 101.319 63.6992 102.064 63.6992 102.982C63.6992 103.901 64.4459 104.645 65.3671 104.645Z" fill="#8FE1D7"/>
<path d="M59.9264 121.274C60.8475 121.274 61.5943 120.529 61.5943 119.611C61.5943 118.693 60.8475 117.948 59.9264 117.948C59.0052 117.948 58.2584 118.693 58.2584 119.611C58.2584 120.529 59.0052 121.274 59.9264 121.274Z" fill="#8FE1D7"/>
<path d="M65.3671 121.274C66.2883 121.274 67.035 120.529 67.035 119.611C67.035 118.693 66.2883 117.948 65.3671 117.948C64.4459 117.948 63.6992 118.693 63.6992 119.611C63.6992 120.529 64.4459 121.274 65.3671 121.274Z" fill="#8FE1D7"/>
<path d="M179.328 180L5.81918 180C5.44775 180 5.14688 179.868 5.14688 179.707C5.14688 179.545 5.44775 179.413 5.81918 179.413L179.328 179.413C179.699 179.413 180 179.544 180 179.707C180 179.869 179.699 180 179.328 180Z" fill="#3F3D56"/>
<path d="M136.46 117.93C136.578 117.984 136.692 118.048 136.801 118.12L147.64 113.508L148.027 110.661L152.358 110.635L152.102 117.164L137.795 120.936C137.765 121.035 137.729 121.132 137.687 121.227C137.48 121.667 137.148 122.036 136.731 122.288C136.314 122.54 135.832 122.664 135.345 122.644C134.858 122.624 134.388 122.461 133.994 122.175C133.6 121.89 133.299 121.494 133.129 121.039C132.959 120.583 132.929 120.088 133.04 119.615C133.152 119.142 133.402 118.712 133.758 118.38C134.113 118.048 134.56 117.828 135.041 117.748C135.521 117.668 136.015 117.732 136.46 117.93Z" fill="#FFB8B8"/>
<path d="M153.933 177.095H150.97L149.56 165.702L153.933 165.702L153.933 177.095Z" fill="#FFB8B8"/>
<path d="M148.854 176.251H154.567V179.838H145.256C145.256 178.887 145.635 177.974 146.31 177.302C146.984 176.629 147.899 176.251 148.854 176.251Z" fill="#2F2E41"/>
<path d="M165.455 176.261L162.506 176.55L159.983 165.349L164.335 164.922L165.455 176.261Z" fill="#FFB8B8"/>
<path d="M160.318 175.917L166.004 175.359L166.356 178.928L157.09 179.838C157.044 179.369 157.09 178.896 157.228 178.445C157.365 177.995 157.59 177.575 157.889 177.211C158.189 176.847 158.558 176.545 158.974 176.323C159.391 176.101 159.847 175.963 160.318 175.917Z" fill="#2F2E41"/>
<path d="M154.757 98.5765C158.035 98.5765 160.693 95.9271 160.693 92.6588C160.693 89.3906 158.035 86.7411 154.757 86.7411C151.479 86.7411 148.822 89.3906 148.822 92.6588C148.822 95.9271 151.479 98.5765 154.757 98.5765Z" fill="#FFB8B8"/>
<path d="M150.308 174.791C150.053 174.792 149.807 174.703 149.611 174.54C149.416 174.377 149.285 174.15 149.241 173.9C147.707 165.413 142.695 137.662 142.575 136.893C142.572 136.875 142.571 136.858 142.571 136.84V134.771C142.571 134.695 142.595 134.622 142.639 134.56L143.301 133.636C143.332 133.591 143.374 133.555 143.422 133.528C143.469 133.502 143.523 133.488 143.577 133.485C147.352 133.309 159.716 132.792 160.314 133.536C160.914 134.283 160.702 136.549 160.653 136.995L160.655 137.042L166.21 172.459C166.253 172.741 166.184 173.03 166.016 173.261C165.848 173.493 165.595 173.649 165.312 173.696L161.843 174.266C161.584 174.307 161.32 174.255 161.097 174.118C160.874 173.981 160.708 173.769 160.628 173.521C159.555 170.102 155.957 158.602 154.71 154.152C154.703 154.124 154.685 154.1 154.66 154.084C154.636 154.068 154.606 154.061 154.577 154.065C154.548 154.069 154.522 154.084 154.502 154.106C154.483 154.128 154.473 154.157 154.473 154.186C154.536 158.428 154.686 169.25 154.738 172.988L154.744 173.391C154.746 173.663 154.646 173.927 154.463 174.129C154.28 174.331 154.027 174.458 153.755 174.484L150.409 174.787C150.375 174.79 150.341 174.791 150.308 174.791Z" fill="#2F2E41"/>
<path d="M150.99 100.903C149.955 101.517 149.335 102.645 148.979 103.793C148.321 105.919 147.924 108.116 147.799 110.337L147.423 116.987L142.77 134.617C146.803 138.019 149.129 137.246 154.558 134.463C159.987 131.68 160.607 135.391 160.607 135.391L161.693 120.39L163.244 103.999C162.896 103.581 162.502 103.203 162.069 102.872C160.635 101.761 158.967 100.988 157.191 100.613C155.414 100.237 153.575 100.269 151.812 100.705L150.99 100.903Z" fill="#8FE1D7"/>
<path d="M149.479 121.491C149.604 121.538 149.725 121.594 149.842 121.66L160.559 116.312L160.737 113.415L165.158 113.111L165.395 119.716L151.072 124.438C150.955 124.938 150.689 125.391 150.307 125.736C149.926 126.081 149.448 126.302 148.938 126.37C148.427 126.438 147.908 126.35 147.449 126.116C146.99 125.883 146.614 125.516 146.369 125.064C146.125 124.612 146.024 124.096 146.081 123.586C146.138 123.075 146.349 122.594 146.686 122.206C147.024 121.819 147.472 121.542 147.971 121.415C148.47 121.287 148.996 121.313 149.479 121.491Z" fill="#FFB8B8"/>
<path d="M163.166 104.074C165.803 105.002 166.268 115.054 166.268 115.054C163.166 113.353 159.443 116.137 159.443 116.137C159.443 116.137 158.667 113.508 157.737 110.105C157.456 109.148 157.422 108.136 157.639 107.163C157.856 106.189 158.316 105.287 158.977 104.538C158.977 104.538 160.529 103.145 163.166 104.074Z" fill="#8FE1D7"/>
<path d="M160.079 94.2238C159.34 93.6339 158.331 94.7061 158.331 94.7061L157.739 89.3973C157.739 89.3973 154.042 89.839 151.675 89.25C149.309 88.661 148.939 91.3883 148.939 91.3883C148.817 90.2867 148.792 89.1764 148.865 88.0704C149.013 86.7432 150.936 85.416 154.337 84.5312C157.739 83.6463 159.514 87.4805 159.514 87.4805C161.881 88.6601 160.819 94.8137 160.079 94.2238Z" fill="#2F2E41"/>
</g>
<defs>
<clipPath id="clip0_9_145">
<rect width="180" height="180" fill="white"/>
</clipPath>
</defs>
</svg>
